<?xml version="1.0" encoding="utf-8"?>
<!-- Generator: Adobe Illustrator 20.1.0, SVG Export Plug-In . SVG Version: 6.00 Build 0)  -->
<svg version="1.1" id="Layer_1" xmlns="http://www.w3.org/2000/svg" xmlns:xlink="http://www.w3.org/1999/xlink" x="0px" y="0px"
	 viewBox="0 0 163.6 40" style="enable-background:new 0 0 163.6 40;" xml:space="preserve">
<style type="text/css">
	.st0{display:none;}
	.st1{display:inline;}
	.st2{clip-path:url(#SVGID_2_);}
	.st3{fill:#00A1B0;}
	.st4{fill:#EE3B25;}
	.st5{fill:#FFFFFF;}
</style>
<g id="Layer_1_1_">
	<g>
		<path class="st3" d="M36.1,21.9c-1.7,0.6-2.2,2-2.6,3.4c0,0.8-0.6,1.5-1.6,2c-0.5,0.2-1,0.3-1.5,0.3c-0.6,0-1.2-0.2-1.8-0.5
			c-0.9-0.5-1.3-1.4-1.3-2.4c-0.5-1.2-1.2-2.4-2.4-2.8c-1.4-0.4-2.3-1.4-2.9-2.4c0,0.6,0,1.2,0,1.4c0,2.6,0,2.1,0,4
			c0.1,1.8,0.7,3.2,1.9,4.5c1.7,1.8,4.1,2.8,6.6,2.8l0,0c0.9,0,1.8-0.1,2.7-0.4c3.3-1,5.7-3.8,5.7-6.9c0-0.9,0-1,0-2.6v-0.7
			c0-0.3,0-1,0-1.9C38.2,20.7,37.4,21.5,36.1,21.9z"/>
		<path class="st4" d="M25,21.1c1,0.3,1.8,1.1,2.3,2c0-1.2,0-2.5,0-4l0,0v-4.9c0-2.5-3.1-3-4.2-3c-0.4,0-1,0.1-1.1,1l0,0v6
			C22.4,19.2,23.3,20.7,25,21.1z"/>
		<path class="st4" d="M38.8,12.2c-0.1-0.9-0.7-1-1.1-1c-1.1,0-4.2,0.6-4.2,3v4.9l0,0c0,1.2,0,0.7,0,1.2c0,1,0,2.2,0,3.2
			c0.5-1.1,1.3-2.1,2.5-2.4c1.5-0.4,2.3-1.6,2.8-2.6V12.2L38.8,12.2z"/>
		<path class="st3" d="M125.1,12.2c0-0.9-0.2-1.3-1.3-1.3c-1.2,0-2,0-3.4,0.3c-3.8,0.7-7.1,3.5-7.6,6.7c-0.2,1-0.2,5.3-0.2,7.2
			c0,0.6,0,1.1,0,1.4c0,0.8,0,1.6,0,2.4c0,0.7,0,1.4,0,2c0,0.4,0.1,0.7,0.3,0.9c0.2,0.2,0.6,0.3,1,0.3h0.1c0.5,0,1,0,1.4,0
			c0.5,0,0.9,0,1.4,0h0.1c0.5,0,0.8-0.1,1-0.3c0.2-0.2,0.3-0.5,0.3-0.9c0-0.8,0-1.7,0-2.5c0-0.3,0-0.7,0-1s0-0.8,0-1.4
			c0-1.6,0-5.7,0-6.5c0-1.3,0.4-2.1,1.2-2.7c0.8-0.7,2.1-1.2,4.1-1.1h0.2c1.1,0,1.5-0.3,1.5-1.4C125.1,13.7,125.1,13,125.1,12.2z"/>
		<path class="st3" d="M163.5,18.7c-0.1-1.8-0.7-3.3-1.9-4.6c-1.7-1.8-4.2-2.9-6.7-2.9c-0.9,0-1.9,0.1-2.8,0.4
			c-3.4,1-5.8,3.9-5.8,7.1c0,0.9,0,5.3,0,7V28c0,0.9,0,1.9,0,2.8c0,1.2,0.3,1.4,1.6,1.4c0.3,0,0.6,0,0.9,0h1.2
			c1.5,0,1.8-0.1,1.8-1.6c0-0.8,0-1.9,0-3c0-2.4,0-7.1,0-8.7c0-1.1,0.6-2,1.6-2.4c0.5-0.2,1-0.3,1.5-0.3c0.7,0,1.3,0.2,1.9,0.5
			c0.9,0.5,1.3,1.3,1.3,2.5c0,2.5,0,9.4,0,11.9c0,0.4,0.1,0.7,0.3,0.9s0.5,0.3,0.9,0.3h0.1c0.3,0,0.5,0,0.9,0c0.2,0,0.4,0,0.7,0
			c0.2,0,0.4,0,0.7,0c0.1,0,0.2,0,0.3,0c1.3,0,1.6-0.3,1.6-1.4c0-0.5,0-1.2,0-1.9C163.6,26.1,163.6,20.7,163.5,18.7z"/>
		<path class="st3" d="M69.8,18.7c-0.1-1.8-0.7-3.3-1.9-4.6c-0.9-0.9-1.9-1.7-3.2-2.2l0,0l-0.2-0.1c-0.2-0.1-0.3-0.1-0.5-0.2
			c-0.9-0.3-1.8-0.4-2.8-0.4h-0.1c-0.9,0-1.9,0.1-2.8,0.4c-1.1,0.3-2.2,0.9-3.1,1.6c-0.9-0.7-2-1.3-3.1-1.6
			c-0.9-0.3-1.8-0.4-2.8-0.4h-0.1c-0.9,0-1.9,0.1-2.8,0.4c-0.2,0-0.3,0.1-0.5,0.2l-0.2,0.1h-0.1c-1.2,0.5-2.2,1.3-3.1,2.2
			c-1.2,1.3-1.8,2.8-1.9,4.6c-0.1,2,0,7.4,0,10.1c0,0.7,0,1.4,0,1.9c0,1,0.3,1.4,1.3,1.4l0,0h2.7h0.1h0.1c0.4,0,0.7-0.1,0.9-0.3
			s0.3-0.5,0.3-0.9c0-2.4,0-9.4,0-11.9c0-1.2,0.4-2,1.3-2.5c0.5-0.3,1.1-0.5,1.7-0.5h0.1h0.2h0.1c0.6,0,1.1,0.2,1.7,0.5
			c0.9,0.5,1.3,1.3,1.3,2.5c0,2.5,0,9.5,0,11.9c0,0.4,0.1,0.7,0.3,0.9c0.2,0.2,0.5,0.3,0.9,0.3h0.1h0.1h2.7h0.1h0.1
			c0.4,0,0.7-0.1,0.9-0.3s0.3-0.5,0.3-0.9c0-2.5,0-9.4,0-11.9c0-1.2,0.4-2,1.3-2.5c0.5-0.3,1.1-0.5,1.7-0.5H61h0.2h0.1
			c0.6,0,1.1,0.2,1.7,0.5c0.9,0.5,1.3,1.3,1.3,2.5c0,2.5,0,9.5,0,11.9c0,0.4,0.1,0.7,0.3,0.9c0.2,0.2,0.5,0.3,0.9,0.3h0.1h0.1h2.7
			l0,0c1.1,0,1.4-0.4,1.4-1.4c0-0.5,0-1.2,0-1.9C69.8,26.1,69.8,20.7,69.8,18.7z"/>
		<path class="st3" d="M90.3,22.1c0-0.4,0-1.6-0.1-2.1c-0.1-1.7-0.6-3-1.1-3.9c-0.4-0.8-1-1.6-1.7-2.3c-1.6-1.6-3.7-2.4-6.2-2.4
			c-1.8,0-3.5,0.5-5,1.6c-0.9-0.9-2.4-1.2-3.6-1.2h-0.3c-0.8,0-0.9,0.6-0.9,0.8v26.5l0,0c0.2,0.6,0.6,0.9,1.3,0.9h2.5l0,0
			c0.5-0.1,1-0.4,1.2-1l0.1,0.1v-8.2c1.5,1,3.1,1.5,4.8,1.5c1.1,0,2.2-0.2,3.1-0.5V32l0.5-0.2c0.6-0.3,1.3-0.7,1.9-1.2l0.3-0.2l0,0
			C89.8,28.1,90.2,23.8,90.3,22.1z M77.7,27.3L77.7,27.3l-0.2-0.1c0,0,0,0-0.1-0.1L77.3,27c-0.1-0.1-0.3-0.3-0.4-0.4
			c0-0.1-0.1-0.1-0.1-0.2l-0.1-0.1c0,0,0,0,0-0.1c-0.1-0.1-0.1-0.3-0.2-0.4c-0.2-0.5-0.3-1.2-0.3-2v-4.4c0-1.7,1.1-3,2.1-3.5
			c0.6-0.3,1.4-0.5,2.2-0.5c0.8,0,1.5,0.2,2.1,0.5l0.2,0.1c0.2,0.1,0.4,0.3,0.7,0.6l0,0l0,0c0.2,0.2,0.3,0.4,0.5,0.6l0.1,0.1
			c0.4,0.6,0.9,2.5,0.9,4.1c0,0.1,0,0.2,0,0.3c0,0.1,0,0.1,0,0.2c0,0,0,0,0,0.1s0,0.2,0,0.3c-0.1,1.8-0.4,4.4-2,5.2
			c-1.9,0.9-2.8,0.7-4.3,0.3C78.4,27.7,78,27.5,77.7,27.3z"/>
		<path class="st3" d="M110.5,12.4c0-0.2-0.1-0.8-0.9-0.8h-0.3c-1.2,0-2.7,0.3-3.6,1.2c-1.5-1.1-3.2-1.6-5-1.6
			c-2.5,0-4.6,0.8-6.2,2.4c-0.7,0.7-1.3,1.4-1.7,2.3c-0.4,0.8-1,2.2-1.1,3.9c0,0.5-0.1,1.7-0.1,2.2c0,1.7,0.5,6,3.1,8.2l0,0l0.3,0.2
			c0.6,0.5,1.3,0.9,1.9,1.2l0.5,0.2v-0.1c1,0.3,2,0.5,3.1,0.5c1.8,0,3.4-0.5,4.8-1.5v0.1c0.1,0.8,0.5,1.3,1.2,1.3h2.6l0,0
			c0.6-0.1,1.2-0.5,1.2-1.4L110.5,12.4z M105.9,23.9c0,0.1,0,0.1,0,0.1c0,0.2-0.1,0.4-0.1,0.5l0,0c-0.2,1.2-0.7,2-1.4,2.6l0,0
			l-0.2,0.1c-0.3,0.2-0.7,0.4-1,0.5c-0.7,0.3-1.5,0.4-2.2,0.4c-0.3,0-0.5,0-0.7-0.1c-0.4-0.1-0.9-0.3-1.4-0.5
			c-0.5-0.3-0.8-0.6-1.1-1l0,0c-0.2-0.3-0.3-0.6-0.5-0.9c-0.5-1.3-0.5-3-0.5-4.1l0,0c0.1-1.8,0.5-3.5,1-4.3c0.1-0.2,0.3-0.4,0.5-0.6
			l0,0l0,0c0.3-0.3,0.5-0.5,0.7-0.6l0.2-0.1c0.6-0.3,1.3-0.5,2.1-0.5c0.9,0,1.7,0.2,2.3,0.6c1,0.4,1.7,1.3,2.1,2.5
			c0.1,0.2,0.1,0.4,0.2,0.7c0,0.1,0,0.3,0,0.4V23.9z"/>
		<path class="st3" d="M144.3,12.4c0-0.2-0.1-0.8-0.9-0.8h-0.3c-1.2,0-2.7,0.3-3.6,1.2c-1.5-1.1-3.2-1.6-5-1.6
			c-2.5,0-4.6,0.8-6.2,2.4c-0.7,0.7-1.3,1.4-1.7,2.3c-0.4,0.8-1,2.2-1.1,3.9c0,0.5-0.1,1.7-0.1,2.2c0,1.7,0.5,6,3.1,8.2l0,0l0.3,0.2
			c0.6,0.5,1.3,0.9,1.9,1.2l0.5,0.2v-0.1c1,0.3,2,0.5,3.1,0.5c1.8,0,3.4-0.5,4.8-1.5v0.1c0.1,0.8,0.5,1.3,1.2,1.3h2.6l0,0
			c0.6-0.1,1.2-0.5,1.2-1.4L144.3,12.4z M139.8,23.9c0,0.1,0,0.1,0,0.1c0,0.2-0.1,0.4-0.1,0.5l0,0c-0.2,1.2-0.7,2-1.4,2.6l0,0
			l-0.2,0.1c-0.3,0.2-0.7,0.4-1,0.5c-0.7,0.3-1.5,0.4-2.2,0.4c-0.3,0-0.5,0-0.7-0.1c-0.4-0.1-0.9-0.3-1.4-0.5
			c-0.5-0.3-0.8-0.6-1.1-1l0,0c-0.2-0.3-0.3-0.6-0.5-0.9c-0.5-1.3-0.5-3-0.5-4.1l0,0c0.1-1.8,0.5-3.5,1-4.3c0.1-0.2,0.3-0.4,0.5-0.6
			l0,0l0,0c0.3-0.3,0.5-0.5,0.7-0.6l0.2-0.1c0.6-0.3,1.3-0.5,2.1-0.5c0.9,0,1.7,0.2,2.3,0.6c1,0.4,1.7,1.3,2.1,2.5
			c0.1,0.2,0.1,0.4,0.2,0.7c0,0.1,0,0.3,0,0.4L139.8,23.9L139.8,23.9z"/>
		<path class="st3" d="M19.6,30.4L19.6,30.4c-0.3-0.3-0.6-0.7-0.9-1c-0.6-0.6-1.1-1.2-1.7-1.8c-0.7-0.8-1.4-1.5-2.1-2.3l-0.1-0.1
			c-0.9-1-1.9-2.1-3-3.2c-0.4-0.4-0.6-0.8-0.6-1.2c0-0.4,0.2-0.8,0.7-1.2c2.2-2.1,4.4-4.4,6.5-6.4l0,0c0.4-0.4,0.6-0.8,0.5-1.1
			c-0.1-0.4-0.4-0.5-2.1-0.5c-0.5,0-2,0-2,0c-1.1,0-1.7,0.2-2.2,0.7s-4.8,4.5-6.7,6.2l-0.6,0.6v-1.3c0-0.6,0-1.1,0-1.8
			c0-0.8,0-1.7,0-2.6l0,0v-10C5.2,0.6,1.8,0,0.7,0C0.2,0,0.1,0.1,0,0.6v14.5v0.5c0,4.5,0,9,0,13.4v2l0,0c0,0.4,0.2,0.7,0.6,0.7h3.8
			c0.4,0,0.7-0.2,0.8-0.8c0-1.1,0-2.2,0-3.2c0,0,0-1.3,0-1.9v-3.5l1.5,1.6c0.2,0.2,0.4,0.5,0.7,0.7l1.5,1.6c1.5,1.6,3.1,3.3,4.8,5
			c0.2,0.2,0.7,0.4,1,0.4c0.9,0,1.8,0,2.9,0c0.7,0,1.3,0,1.9,0l0,0C20.3,31.8,20.2,31,19.6,30.4z"/>
	</g>
</g>
</svg>
